<svg width="1200" height="630" viewBox="0 0 1200 630" fill="none" xmlns="http://www.w3.org/2000/svg">
  <defs>
    <linearGradient id="paint0_linear" x1="120" y1="90" x2="1080" y2="540" gradientUnits="userSpaceOnUse">
      <stop stop-color="#F8FAFC" />
      <stop offset="1" stop-color="#EFF6FF" />
    </linearGradient>
    <linearGradient id="paint1_linear" x1="120" y1="110" x2="600" y2="420" gradientUnits="userSpaceOnUse">
      <stop stop-color="#2563EB" />
      <stop offset="1" stop-color="#06B6D4" />
    </linearGradient>
    <linearGradient id="paint2_linear" x1="830" y1="140" x2="1040" y2="370" gradientUnits="userSpaceOnUse">
      <stop stop-color="#10B981" />
      <stop offset="1" stop-color="#14B8A6" />
    </linearGradient>
  </defs>
  <rect width="1200" height="630" fill="url(#paint0_linear)" />
  <rect x="48" y="48" width="1104" height="534" rx="40" fill="white" stroke="#E2E8F0" />
  <circle cx="970" cy="180" r="140" fill="#DBEAFE" fill-opacity="0.65" />
  <circle cx="240" cy="450" r="110" fill="#CFFAFE" fill-opacity="0.75" />
  <path d="M128 178C220 102 328 72 458 72C622 72 767 139 858 252" stroke="url(#paint1_linear)" stroke-width="18" stroke-linecap="round" />
  <path d="M250 306C354 234 476 198 618 198C770 198 882 246 1018 350" stroke="url(#paint2_linear)" stroke-width="14" stroke-linecap="round" opacity="0.9" />

  <rect x="90" y="94" width="450" height="304" rx="30" fill="white" stroke="#E2E8F0" />
  <text x="130" y="172" fill="#0F172A" font-size="54" font-family="Inter, Arial, Helvetica, sans-serif" font-weight="700">Encryvia Labs</text>
  <text x="130" y="224" fill="#475569" font-size="28" font-family="Inter, Arial, Helvetica, sans-serif">Innovative Digital Solutions</text>
  <text x="130" y="280" fill="#64748B" font-size="22" font-family="Inter, Arial, Helvetica, sans-serif">Websites • Software • Mobile Apps • SaaS • AI</text>
  <rect x="130" y="320" width="186" height="52" rx="26" fill="#2563EB" />
  <text x="162" y="353" fill="#FFFFFF" font-size="18" font-family="Inter, Arial, Helvetica, sans-serif" font-weight="700">Start Your Project</text>

  <rect x="790" y="108" width="286" height="120" rx="26" fill="white" stroke="#E2E8F0" />
  <circle cx="830" cy="156" r="24" fill="url(#paint1_linear)" />
  <path d="M820 156H840M830 146V166" stroke="white" stroke-width="4" stroke-linecap="round" />
  <text x="872" y="150" fill="#0F172A" font-size="22" font-family="Inter, Arial, Helvetica, sans-serif" font-weight="700">AI-Powered</text>
  <text x="872" y="176" fill="#64748B" font-size="16" font-family="Inter, Arial, Helvetica, sans-serif">Smart solutions for modern teams</text>

  <rect x="760" y="378" width="320" height="138" rx="28" fill="white" stroke="#E2E8F0" />
  <circle cx="804" cy="430" r="24" fill="url(#paint2_linear)" />
  <path d="M792 430H816M804 418V442" stroke="white" stroke-width="4" stroke-linecap="round" />
  <text x="848" y="424" fill="#0F172A" font-size="22" font-family="Inter, Arial, Helvetica, sans-serif" font-weight="700">Fast Delivery</text>
  <text x="848" y="450" fill="#64748B" font-size="16" font-family="Inter, Arial, Helvetica, sans-serif">Agile execution with reliable outcomes</text>
</svg>
